HIERARCHY
ROOT ui
{
	 OFFSET 0 0 0
	 CHANNELS 3 XPosition YPosition Z Position
	 EndSite
	 {
	 OFFSET 0 -1 0
	 }
}
ROOT li
{
	 OFFSET 0 0 0
	 CHANNELS 3 XPosition YPosition Z Position
	 EndSite
	 {
	 OFFSET 0 -1 0
	 }
}
ROOT ul
{
	 OFFSET 0 0 0
	 CHANNELS 3 XPosition YPosition Z Position
	 EndSite
	 {
	 OFFSET 0 -1 0
	 }
}
ROOT ll
{
	 OFFSET 0 0 0
	 CHANNELS 3 XPosition YPosition Z Position
	 EndSite
	 {
	 OFFSET 0 -1 0
	 }
}
ROOT tt
{
	 OFFSET 0 0 0
	 CHANNELS 3 XPosition YPosition Z Position
	 EndSite
	 {
	 OFFSET 0 -1 0
	 }
}
ROOT tb
{
	 OFFSET 0 0 0
	 CHANNELS 3 XPosition YPosition Z Position
	 EndSite
	 {
	 OFFSET 0 -1 0
	 }
}
ROOT td
{
	 OFFSET 0 0 0
	 CHANNELS 3 XPosition YPosition Z Position
	 EndSite
	 {
	 OFFSET 0 -1 0
	 }
}
ROOT v
{
	 OFFSET 0 0 0
	 CHANNELS 3 XPosition YPosition Z Position
	 EndSite
	 {
	 OFFSET 0 -1 0
	 }
}
ROOT bn
{
	 OFFSET 0 0 0
	 CHANNELS 3 XPosition YPosition Z Position
	 EndSite
	 {
	 OFFSET 0 -1 0
	 }
}
MOTION
Frames: 21
Frame Time: 0.002
-0.018192258834838868	0.0034832301139831544	0		0.5896948852539062	-2.617783203125	0		-1.1072174072265626	-0.14098907470703126	0		-0.5386488037109375	-2.518977783203125	0		2.050254638671875	-1.81886474609375	0		3.465360595703125	-1.3746402587890625	0		4.73078076171875	-0.5999860229492188	0		5.99160986328125	0.387931640625	0		-0.08838124084472657	5.90510986328125	0		
0.027551687240600586	0.00405197811126709	0		0.5975199584960937	-2.6039541015625	0		-1.029481689453125	-0.1416376495361328	0		-0.5448369140625	-2.507047607421875	0		2.0429171142578126	-1.8289366455078124	0		3.476384033203125	-1.33284326171875	0		4.72769677734375	-0.5740958251953125	0		5.9873984375	0.39482379150390623	0		-0.09251029205322266	5.9210244140625	0		
-0.02674127197265625	0.004310780048370362	0		0.5662050170898437	-2.605856201171875	0		-1.0478175048828124	-0.1476248321533203	0		-0.5081531677246094	-2.5094169921875	0		2.073506103515625	-1.845271728515625	0		3.45101708984375	-1.3427950439453125	0		4.74444970703125	-0.5673416748046874	0		5.99116748046875	0.40366357421875	0		-0.08989127349853515	5.90588916015625	0		
0.024854713439941407	-0.008166149139404296	0		0.5928584594726563	-2.609161376953125	0		-1.127128662109375	-0.14619288635253908	0		-0.5454633178710937	-2.507277099609375	0		2.063099609375	-1.85732373046875	0		3.455826171875	-1.3239544677734374	0		4.723240234375	-0.5513233642578125	0		5.9738486328125	0.403651611328125	0		-0.15928010559082031	5.89425048828125	0		
-0.03544731521606445	-0.002870835065841675	0		0.5675521240234375	-2.604109375	0		-1.1155364990234375	-0.156394287109375	0		-0.541770263671875	-2.50242431640625	0		2.0686826171875	-1.8684879150390625	0		3.46054150390625	-1.316114013671875	0		4.72099169921875	-0.5384359741210938	0		5.98645556640625	0.39543365478515624	0		-0.15961024475097657	5.89413037109375	0		
0.02625094795227051	0.003576682090759277	0		0.598215087890625	-2.602447265625	0		-1.11380224609375	-0.14453073120117188	0		-0.5651267700195313	-2.503387451171875	0		2.061263916015625	-1.878563232421875	0		3.452434814453125	-1.2811842041015624	0		4.71671923828125	-0.527533935546875	0		5.98216259765625	0.4033349914550781	0		-0.12492196655273438	5.89876513671875	0		
0.025899450302124025	0.0034513731002807618	0		0.597864990234375	-2.602572265625	0		-1.043210693359375	-0.15314820861816406	0		-0.5004576110839843	-2.50096337890625	0		2.065892578125	-1.881721923828125	0		3.4500146484375	-1.2912935791015625	0		4.74049169921875	-0.5098233642578125	0		5.9858662109375	0.41118511962890625	0		-0.09122909545898437	5.905404296875	0		
-0.032468059539794925	7.255129814147949E-4	0		0.59550830078125	-2.604684814453125	0		-1.1225496826171875	-0.1517309112548828	0		-0.550744140625	-2.492745849609375	0		2.081499267578125	-1.8889559326171874	0		3.464883544921875	-1.260518798828125	0		4.72723486328125	-0.49685211181640626	0		5.99451708984375	0.41100723266601563	0		-0.08960295104980469	5.9032626953125	0		
0.018162656784057617	-0.0037575058937072752	0		0.6231558837890625	-2.60800634765625	0		-1.0438983154296875	-0.15341168212890624	0		-0.5081803894042969	-2.50817529296875	0		2.0740966796875	-1.8990299072265624	0		3.45358251953125	-1.2555604248046874	0		4.72799951171875	-0.4819732360839844	0		5.98517529296875	0.41096096801757814	0		-0.09195063781738282	5.90514599609375	0		
-0.037163829803466795	-0.003510061979293823	0		0.5678770751953125	-2.602756103515625	0		-1.1172513427734374	-0.1570450134277344	0		-0.5325157470703125	-2.511144775390625	0		2.08866748046875	-1.9152557373046875	0		3.42548291015625	-1.223483154296875	0		4.7187978515625	-0.46402157592773435	0		5.975845703125	0.41092041015625	0		-0.160396484375	5.89248291015625	0		
0.02457451057434082	0.0029254159927368166	0		0.6006184692382812	-2.598116455078125	0		-1.1095107421875	-0.15024319458007812	0		-0.530794921875	-2.509297607421875	0		2.090391357421875	-1.912392333984375	0		3.46318115234375	-1.223860107421875	0		4.7255673828125	-0.4531778564453125	0		5.9935341796875	0.41069744873046876	0		-0.12761122894287108	5.91111767578125	0		
0.028313360214233398	0.005759665966033936	0		0.572369873046875	-2.59605712890625	0		-1.0307933349609375	-0.15093464660644532	0		-0.5330723266601562	-2.51142578125	0		2.11319189453125	-1.902674560546875	0		3.443295166015625	-1.1678367919921875	0		4.7154189453125	-0.4342149658203125	0		5.99235986328125	0.4266088562011719	0		-0.12603219604492188	5.89696533203125	0		
0.02101551628112793	-0.0013323800563812256	0		0.5891683349609375	-2.592310546875	0		-1.0390966796875	-0.15902833557128906	0		-0.5502944946289062	-2.51045361328125	0		2.11093701171875	-1.9057843017578124	0		3.431979248046875	-1.17887353515625	0		4.7123232421875	-0.41229901123046875	0		5.9880517578125	0.41854434204101565	0		-0.1263295669555664	5.8968232421875	0		
-0.03822054672241211	-0.004069584846496582	0		0.560989013671875	-2.590256103515625	0		-1.1183033447265625	-0.1576373748779297	0		-0.5555232543945312	-2.515567626953125	0		2.1127578125	-1.9029229736328126	0		3.42202099609375	-1.142918701171875	0		4.69919873046875	-0.3993133239746094	0		5.9837763671875	0.41048171997070315	0		-0.09155838012695312	5.9024375	0		
0.016593130111694335	-0.00459513521194458	0		0.597752197265625	-2.60165185546875	0		-1.11043896484375	-0.15085028076171875	0		-0.5467532348632812	-2.52578173828125	0		2.126597412109375	-1.902146240234375	0		3.43897705078125	-1.124150390625	0		4.70506396484375	-0.3924588623046875	0		5.98764208984375	0.4183641052246094	0		-0.09179979705810547	5.90228955078125	0		
-0.03051083183288574	0.0025772120952606203	0		0.5736732177734375	-2.5946318359375	0		-1.1055633544921875	-0.14704592895507812	0		-0.549895263671875	-2.527916748046875	0		2.12860009765625	-1.882289794921875	0		3.420212890625	-1.0691376953125	0		4.6951328125	-0.36049700927734374	0		5.9835400390625	0.4262998962402344	0		-0.16209169006347657	5.890619140625	0		
0.023368780136108398	0.0020538339614868165	0		0.5916197509765625	-2.588902587890625	0		-1.1016605224609375	-0.1442369384765625	0		-0.5520037231445313	-2.530061279296875	0		2.130526611328125	-1.87843603515625	0		3.42609033203125	-1.071298828125	0		4.70510498046875	-0.3476754760742187	0		5.99141650390625	0.42614971923828127	0		-0.1622674560546875	5.89046484375	0		
-0.034731739044189455	-7.03577995300293E-4	0		0.5915618896484375	-2.58905224609375	0		-1.0277696533203124	-0.1489082489013672	0		-0.47723501586914063	-2.55573388671875	0		2.135503173828125	-1.8726058349609376	0		3.4143408203125	-1.024341552734375	0		4.69916259765625	-0.3277488403320313	0		5.9872763671875	0.4180767822265625	0		-0.12736189270019532	5.89606884765625	0		
0.016201242446899414	-0.00520869779586792	0		0.5805863037109374	-2.58312841796875	0		-1.1057982177734376	-0.14753965759277343	0		-0.5232921142578125	-2.561579345703125	0		2.1345966796875	-1.85573779296875	0		3.414420166015625	-1.0084696044921875	0		4.69326220703125	-0.3078269348144531	0		5.9912890625	0.4259430236816406	0		-0.09240934753417969	5.901671875	0		
-0.04772430038452148	0.004071475028991699	0		0.566610595703125	-2.584185302734375	0		-1.0898270263671874	-0.15381399536132812	0		-0.48137860107421876	-2.579026611328125	0		2.15367626953125	-1.8480086669921876	0		3.37669287109375	-0.9713421630859375	0		4.69327490234375	-0.3079501647949219	0		5.98724267578125	0.4178585510253906	0		-0.1274822998046875	5.89575390625	0		
0.032324565887451175	3.685980141162872E-4	0		0.5707255859375	-2.58036572265625	0		-1.11667919921875	-0.14279367065429688	0		-0.5373851318359375	-2.592803955078125	0		2.160943359375	-1.821199951171875	0		3.399783447265625	-0.96963427734375	0		4.68751123046875	-0.28403775024414063	0		6.00036572265625	0.42565121459960936	0		-0.12546245574951173	5.89358251953125	0		
